# xmcd
#
# Track frame offsets: 
#        150
#        26328
#        68319
#        87977
#        111410
#        145377
#        173775
#        191868
#        227617
#        264286
#
# Disc length: 4029 seconds
#
# Revision: 1
# Processed by: cddbd v1.5.2PL0 Copyright (c) Steve Scherf et al.
# Submitted via: ExactAudioCopy v0.99pb4
#
DISCID=800fbb0a
DTITLE=Bruce Springsteen - Hollywood, 11-19-05(Rockaway Rob version-Di
DTITLE=sc 2)
DYEAR=2005
DGENRE=Rock and Roll
TTITLE0=The Rising
TTITLE1=Lucky Town
TTITLE2=Jesus Was An Only Son
TTITLE3=Two Hearts
TTITLE4=New Timer
TTITLE5=Matamoros Banks
TTITLE6=I Wanna Marry You
TTITLE7=Thundercrack
TTITLE8=The Promised Land
TTITLE9=Dream Baby Dream
EXTD=
EXTT0=
EXTT1=
EXTT2=
EXTT3=
EXTT4=
EXTT5=
EXTT6=
EXTT7=
EXTT8=
EXTT9=
PLAYORDER=
